name processed_emg_signals
nRows=41
nColumns=7
 
endheader
time	LGLTMED	LRF	LADDLONG	LST	LTA	LGM
0.0	0.0042774996488254	0.0156163517065772	0.0011974485978039	0.0038993603537774	0.0277845905471463	0.0235319241103232
0.001	0.0046511387890455	0.015470078322116	0.0016380853173104	0.0055743785847779	0.0298237508575884	0.0224557315491771
0.002	0.005044942424136	0.0152954012850273	0.0020844178472242	0.0073089876130129	0.0318958288539452	0.0213087315395902
0.003	0.0054583699003763	0.0150912717256793	0.0025363339821981	0.009103481484066	0.0340003663739589	0.0200894325272439
0.004	0.0058908226182263	0.0148566369751631	0.0029937222493432	0.0109581093045205	0.0361368855985505	0.0187963697789856
0.005	0.0063416430593283	0.0145904416249413	0.0034564722869872	0.0128730742782287	0.038304889727052	0.0174281074980063
0.006	0.0068101138796768	0.0142916286277706	0.0039244752146005	0.0148485327736451	0.0405038636797227	0.0159832409562129
0.007	0.0072954570724518	0.0139591404403451	0.0043976239918177	0.0168845934229964	0.0427332748256418	0.0144603986417464
0.008	0.0077968332039584	0.013591920207945	0.0048758137645167	0.0189813162542242	0.0449925737341353	0.0128582444194757
0.009000000000000001	0.0083133407260462	0.0131889129911594	0.005358942196198	0.0211387118567862	0.0472811949478957	0.0111754797021601
0.01	0.0088440153682595	0.0127490670345835	0.0058469097829845	0.0233567405826432	0.0495985577758273	0.0094108456298582
0.011	0.0093878296129215	0.0122713350771715	0.0063396201507193	0.0256353117838671	0.0519440671036766	0.0075631252550547
0.012	0.0099436922561303	0.0117546757037475	0.0068369803327535	0.0279742830884381	0.0543171142203494	0.0056311457307878
0.013000000000000001	0.0105104480575438	0.0111980547369945	0.0073389010272164	0.0303734597157583	0.0567170776577574	0.0036137804989208
0.014	0.0110868774816496	0.0106004466690184	0.0078452968327538	0.0328325938334388	0.0591433240419073	0.0015099514754565
0.015	0.0116716965330605	0.0099608361314497	0.0083560864620062	0.035351383956848	0.0615952089527549	0.0006813687703275
0.016	0.0122635566882852	0.0092782194028229	0.0088711929324237	0.037929474392989	0.0640720777902631	0.002961154846352
0.017	0.0128610449262248	0.0085516059517996	0.0093905437342395	0.0405664547301801	0.0665732666439293	0.0053303263813533
0.018000000000000002	0.0134626838594635	0.0077800200146081	0.0099140709756655	0.0432618593750909	0.0690981031629221	0.0077897458852493
0.019	0.0140669319682354	0.0069625022049777	0.0104417115054686	0.0460151671385404	0.0716459074238196	0.0103402166299818
0.02	0.0146721839387139	0.0060981111546691	0.0109734070131955	0.0488258008714517	0.0742159927928068	0.0129824805545906
0.021	0.0152767711071588	0.0051859251826524	0.0115091041073069	0.0516931271521988	0.0768076667791082	0.0157172161984204
0.022	0.0158789620113134	0.0042250439908899	0.0120487543715226	0.0546164560265914	0.0794202318763419	0.0185450366663263
0.023	0.0164769630503154	0.0032145903845824	0.0125923143997068	0.0575950408017025	0.0820529863885744	0.0214664876298683
0.024	0.0170689192543628	0.0021537120146407	0.0131397458095436	0.0606280778948252	0.0847052252378294	0.024482045368452
0.025	0.017652915165218	0.0010415831400613	0.0136910152353728	0.0637147067388833	0.0873762407499381	0.027592114854361
0.026000000000000002	0.0182269758285338	0.0001225935923455	0.0142460943004706	0.0668540097456658	0.0900653234156005	0.0307970278857528
0.027	0.0187890678988641	0.0013395853534619	0.0148049595691877	0.0700450123281585	0.0927717626235185	0.034097041271717
0.028	0.0193371008580999	0.0026101273254585	0.0153675924793629	0.0732866829831777	0.0954948473624322	0.0374923350735724
0.029	0.0198689283478821	0.0039349208864354	0.0159339792555095	0.0765779334353888	0.0982338668888828	0.0409830109067149
0.03	0.0203823496164202	0.0053146317892331	0.0165041108033156	0.0799176188437097	0.1009881113575275	0.0445690903073303
0.031	0.0208751110799849	0.0067498883377811	0.0170779825860382	0.0833045380711092	0.1037568724108807	0.0482505131683077
0.032	0.021344907999134	0.0082412795644263	0.0176555944833883	0.0867374340189263	0.106539443725463	0.0520271362486419
0.033	0.0217893862696246	0.0097893534119189	0.018236950633504	0.0902149940268166	0.1093351215116078	0.0558987317605424
0.034	0.0222061443277171	0.0113946149237921	0.0188220592585943	0.0937358503396635	0.112143204964391	0.0598649860383841
0.035	0.0225927351694683	0.0130575244470462	0.0194109324749245	0.0972985806427522	0.1149629966634489	0.0639254982935298
0.036000000000000004	0.0229466684833361	0.0147784958510529	0.0200035860877701	0.1009017086666205	0.1177938029196661	0.068079779458929
0.037	0.0232654128952246	0.0165578947667323	0.0206000393720354	0.1045437048630359	0.1206349340668843	0.0723272511272661
0.038	0.0235463983249536	0.0183960368501354	0.0212003148391932	0.1082229871535486	0.1234857046971462	0.0766672445862772
0.039	0.0237870184528901	0.0202931860746369	0.0218044379912604	0.1119379217521769	0.1263454338385524	0.0810989999547205
0.04	0.0239846332953782	0.0222495530560327	0.0224124370625199	0.1156868240636684	0.1292134450757635	0.0856216654223094
